<svg width="216" height="190" viewBox="0 0 216 190" fill="none" xmlns="http://www.w3.org/2000/svg">
<g filter="url(#filter0_d_5_5225)">
<circle cx="107.612" cy="70.1728" r="68.3309" fill="white" stroke="black" stroke-width="2.8062"/>
<g filter="url(#filter1_dd_5_5225)">
<path d="M168.086 70.1728C168.086 103.571 141.011 130.646 107.612 130.646C74.2136 130.646 47.1387 103.571 47.1387 70.1728C47.1387 36.7742 74.2136 9.69922 107.612 9.69922C141.011 9.69922 168.086 36.7742 168.086 70.1728ZM50.1623 70.1728C50.1623 101.901 75.8835 127.623 107.612 127.623C139.341 127.623 165.062 101.901 165.062 70.1728C165.062 38.4441 139.341 12.7229 107.612 12.7229C75.8835 12.7229 50.1623 38.4441 50.1623 70.1728Z" fill="#212121"/>
</g>
<g filter="url(#filter2_d_5_5225)">
<path d="M78.5684 43.0933L78.5684 96.852L83.976 93.1938L90.8152 69.0183L131.532 93.1938L78.5684 43.0933Z" fill="#212121"/>
</g>
<g filter="url(#filter3_d_5_5225)">
<path d="M136.939 43.093V96.8517L131.532 93.1936L124.693 69.0181L83.976 93.1936L136.939 43.093Z" fill="#212121"/>
</g>
</g>
<path fill-rule="evenodd" clip-rule="evenodd" d="M109.801 1.0195V11.2992H107.645V1" fill="#212121"/>
<path fill-rule="evenodd" clip-rule="evenodd" d="M127.594 3.82337L124.93 13.7677L122.848 13.21L125.519 3.24231" fill="#212121"/>
<path fill-rule="evenodd" clip-rule="evenodd" d="M142.194 10.0552C142.818 10.414 143.439 10.7805 144.047 11.1549L138.903 20.0658L137.035 18.9894L142.194 10.0552Z" fill="#212121"/>
<path fill-rule="evenodd" clip-rule="evenodd" d="M156.535 20.9589C157.046 21.4658 157.549 21.9767 158.044 22.4993L150.775 29.7683L149.25 28.2435L156.535 20.9589Z" fill="#212121"/>
<path fill-rule="evenodd" clip-rule="evenodd" d="M167.583 35.1851C167.945 35.8051 168.3 36.4291 168.647 37.0608L159.733 42.2085L158.656 40.3405L167.583 35.1851Z" fill="#212121"/>
<path fill-rule="evenodd" clip-rule="evenodd" d="M174.565 51.7938C174.753 52.4841 174.932 53.1821 175.1 53.8841L165.159 56.5476L164.602 54.4651L174.565 51.7938Z" fill="#212121"/>
<path fill-rule="evenodd" clip-rule="evenodd" d="M176.996 69.6429C176.996 69.7599 177 69.8808 177 69.9978C177 70.5984 176.993 71.1989 176.977 71.7995H166.693V69.6429H176.996Z" fill="#212121"/>
<path fill-rule="evenodd" clip-rule="evenodd" d="M174.754 87.5153C174.571 88.2134 174.376 88.9036 174.173 89.5939L164.229 86.9304L164.786 84.8479L174.754 87.5153Z" fill="#212121"/>
<path fill-rule="evenodd" clip-rule="evenodd" d="M167.94 104.195C167.582 104.819 167.215 105.439 166.841 106.047L157.93 100.903L159.006 99.0353L167.94 104.195Z" fill="#212121"/>
<path fill-rule="evenodd" clip-rule="evenodd" d="M157.036 118.534C156.529 119.045 156.018 119.548 155.496 120.043L148.227 112.774L149.751 111.249L157.036 118.534Z" fill="#212121"/>
<path fill-rule="evenodd" clip-rule="evenodd" d="M140.935 130.646L135.787 121.732L137.655 120.655L142.811 129.586" fill="#212121"/>
<path fill-rule="evenodd" clip-rule="evenodd" d="M71.9453 128.841L77.089 119.93L78.957 121.006L73.8016 129.941" fill="#212121"/>
<path fill-rule="evenodd" clip-rule="evenodd" d="M59.4623 119.037C58.9515 118.53 58.4484 118.019 57.9531 117.496L65.2222 110.227L66.747 111.752L59.4623 119.037Z" fill="#212121"/>
<path fill-rule="evenodd" clip-rule="evenodd" d="M48.4123 104.811C48.0496 104.191 47.6908 103.567 47.3477 102.935L56.2624 97.7872L57.3387 99.6552L48.4123 104.811Z" fill="#212121"/>
<path fill-rule="evenodd" clip-rule="evenodd" d="M41.4288 88.2016C41.2416 87.5075 41.0622 86.8133 40.8945 86.1114L50.8349 83.4479L51.3926 85.5303L41.4288 88.2016Z" fill="#212121"/>
<path fill-rule="evenodd" clip-rule="evenodd" d="M39.0195 68.1963H49.2992V70.3528H39" fill="#212121"/>
<path fill-rule="evenodd" clip-rule="evenodd" d="M41.2422 52.4803C41.4255 51.7822 41.6205 51.092 41.8232 50.4056L51.7675 53.0692L51.2099 55.1516L41.2422 52.4803Z" fill="#212121"/>
<path fill-rule="evenodd" clip-rule="evenodd" d="M48.0547 35.8011C48.4135 35.1771 48.78 34.5571 49.1544 33.9487L58.0653 39.0925L56.9851 40.9604L48.0547 35.8011Z" fill="#212121"/>
<path fill-rule="evenodd" clip-rule="evenodd" d="M58.959 21.4618C59.4659 20.951 59.9768 20.4479 60.4994 19.9526L67.7685 27.2217L66.2437 28.7465L58.959 21.4618Z" fill="#212121"/>
<path fill-rule="evenodd" clip-rule="evenodd" d="M73.1836 10.414C73.8036 10.0513 74.4276 9.69254 75.0594 9.34937L80.207 18.2641L78.339 19.3444L73.1836 10.414Z" fill="#212121"/>
<path fill-rule="evenodd" clip-rule="evenodd" d="M91.8793 2.89526L94.5428 12.8357L92.4604 13.3933L89.7891 3.42953" fill="#212121"/>
<rect x="104.102" y="85.8069" width="3.07275" height="3.07275" fill="#333333"/>
<rect x="104.102" y="89.7573" width="3.07275" height="3.07275" fill="#333333"/>
<rect x="108.053" y="85.8068" width="3.07275" height="3.07275" fill="#333333"/>
<rect x="108.053" y="89.7573" width="3.07275" height="3.07275" fill="#333333"/>
<path d="M23.76 165.96L18.72 174.96H13.68L8.64 165.96V180H2.16V154.8H9L16.2 168.12L23.4 154.8H30.24V180H23.76V165.96ZM33.4941 169.92V164.88H48.2541V169.92H33.4941ZM51.4842 154.8H65.8842C68.2362 154.8 69.9642 155.34 71.0682 156.42C72.1722 157.476 72.7242 159.096 72.7242 161.28C72.7242 162.72 72.4122 163.896 71.7882 164.808C71.1642 165.696 70.3962 166.32 69.4842 166.68C71.4282 167.208 72.7482 168.504 73.4442 170.568C73.6842 171.312 73.8042 172.176 73.8042 173.16C73.8042 175.512 73.2522 177.24 72.1482 178.344C71.0442 179.448 69.3162 180 66.9642 180H51.4842V154.8ZM67.3242 172.08C67.3242 170.64 66.6042 169.92 65.1642 169.92H57.9642V174.96H65.1642C66.6042 174.96 67.3242 174.24 67.3242 172.8V172.08ZM66.2442 162C66.2442 160.56 65.5242 159.84 64.0842 159.84H57.9642V164.88H64.0842C65.5242 164.88 66.2442 164.16 66.2442 162.72V162ZM85.5028 175.14C86.7748 175.14 88.2148 174.9 89.8228 174.42V160.92H96.1228V180H90.5428L90.1828 178.2C89.0548 178.944 87.8908 179.496 86.6908 179.856C85.5148 180.192 84.5188 180.36 83.7028 180.36H82.0828C80.4508 180.36 79.1428 179.868 78.1588 178.884C77.1748 177.9 76.6828 176.592 76.6828 174.96V160.92H82.9828V173.88C82.9828 174.24 83.1028 174.54 83.3428 174.78C83.5828 175.02 83.8828 175.14 84.2428 175.14H85.5028ZM98.9902 174.96C103.862 175.32 107.702 175.5 110.51 175.5C110.87 175.5 111.17 175.38 111.41 175.14C111.65 174.9 111.77 174.6 111.77 174.24V172.98H104.03C102.398 172.98 101.09 172.488 100.106 171.504C99.1222 170.52 98.6302 169.212 98.6302 167.58V166.32C98.6302 164.688 99.1222 163.38 100.106 162.396C101.09 161.412 102.398 160.92 104.03 160.92H116.27V165.6H106.19C105.83 165.6 105.53 165.72 105.29 165.96C105.05 166.2 104.93 166.5 104.93 166.86C104.93 167.22 105.05 167.52 105.29 167.76C105.53 168 105.83 168.12 106.19 168.12H112.67C114.302 168.12 115.61 168.612 116.594 169.596C117.578 170.58 118.07 171.888 118.07 173.52V174.96C118.07 176.592 117.578 177.9 116.594 178.884C115.61 179.868 114.302 180.36 112.67 180.36C108.422 180.36 103.862 180.12 98.9902 179.64V174.96ZM128.161 161.64V180H121.861V166.5H119.161V161.64H128.161ZM121.861 154.44H128.161V159.48H121.861V154.44ZM142.393 165.78C141.121 165.78 139.681 166.02 138.073 166.5V180H131.773V160.92H137.353L137.713 162.72C138.841 161.976 139.993 161.436 141.169 161.1C142.369 160.74 143.377 160.56 144.193 160.56H145.813C147.445 160.56 148.753 161.052 149.737 162.036C150.721 163.02 151.213 164.328 151.213 165.96V180H144.913V167.04C144.913 166.68 144.793 166.38 144.553 166.14C144.313 165.9 144.013 165.78 143.653 165.78H142.393ZM161.828 165.06C160.868 165.06 160.388 165.54 160.388 166.5V168.48H166.508V166.5C166.508 165.54 166.028 165.06 165.068 165.06H161.828ZM172.088 179.64C167.456 180.12 163.256 180.36 159.488 180.36C157.856 180.36 156.548 179.868 155.564 178.884C154.58 177.9 154.088 176.592 154.088 174.96V166.32C154.088 164.52 154.592 163.116 155.6 162.108C156.632 161.076 158.048 160.56 159.848 160.56H167.048C168.848 160.56 170.252 161.076 171.26 162.108C172.292 163.116 172.808 164.52 172.808 166.32V172.98H160.388V174.42C160.388 174.78 160.508 175.08 160.748 175.32C160.988 175.56 161.288 175.68 161.648 175.68C164.024 175.68 167.504 175.5 172.088 175.14V179.64ZM175.314 174.96C180.186 175.32 184.026 175.5 186.834 175.5C187.194 175.5 187.494 175.38 187.734 175.14C187.974 174.9 188.094 174.6 188.094 174.24V172.98H180.354C178.722 172.98 177.414 172.488 176.43 171.504C175.446 170.52 174.954 169.212 174.954 167.58V166.32C174.954 164.688 175.446 163.38 176.43 162.396C177.414 161.412 178.722 160.92 180.354 160.92H192.594V165.6H182.514C182.154 165.6 181.854 165.72 181.614 165.96C181.374 166.2 181.254 166.5 181.254 166.86C181.254 167.22 181.374 167.52 181.614 167.76C181.854 168 182.154 168.12 182.514 168.12H188.994C190.626 168.12 191.934 168.612 192.918 169.596C193.902 170.58 194.394 171.888 194.394 173.52V174.96C194.394 176.592 193.902 177.9 192.918 178.884C191.934 179.868 190.626 180.36 188.994 180.36C184.746 180.36 180.186 180.12 175.314 179.64V174.96ZM196.197 174.96C201.069 175.32 204.909 175.5 207.717 175.5C208.077 175.5 208.377 175.38 208.617 175.14C208.857 174.9 208.977 174.6 208.977 174.24V172.98H201.237C199.605 172.98 198.297 172.488 197.313 171.504C196.329 170.52 195.837 169.212 195.837 167.58V166.32C195.837 164.688 196.329 163.38 197.313 162.396C198.297 161.412 199.605 160.92 201.237 160.92H213.477V165.6H203.397C203.037 165.6 202.737 165.72 202.497 165.96C202.257 166.2 202.137 166.5 202.137 166.86C202.137 167.22 202.257 167.52 202.497 167.76C202.737 168 203.037 168.12 203.397 168.12H209.877C211.509 168.12 212.817 168.612 213.801 169.596C214.785 170.58 215.277 171.888 215.277 173.52V174.96C215.277 176.592 214.785 177.9 213.801 178.884C212.817 179.868 211.509 180.36 209.877 180.36C205.629 180.36 201.069 180.12 196.197 179.64V174.96Z" fill="white"/>
<defs>
<filter id="filter0_d_5_5225" x="36.7564" y="0.438843" width="141.712" height="141.713" filterUnits="userSpaceOnUse" color-interpolation-filters="sRGB">
<feFlood flood-opacity="0" result="BackgroundImageFix"/>
<feColorMatrix in="SourceAlpha" type="matrix" values="0 0 0 0 0 0 0 0 0 0 0 0 0 0 0 0 0 0 127 0" result="hardAlpha"/>
<feOffset dy="1.12248"/>
<feGaussianBlur stdDeviation="0.561239"/>
<feComposite in2="hardAlpha" operator="out"/>
<feColorMatrix type="matrix" values="0 0 0 0 0 0 0 0 0 0 0 0 0 0 0 0 0 0 0.25 0"/>
<feBlend mode="normal" in2="BackgroundImageFix" result="effect1_dropShadow_5_5225"/>
<feBlend mode="normal" in="SourceGraphic" in2="effect1_dropShadow_5_5225" result="shape"/>
</filter>
<filter id="filter1_dd_5_5225" x="37.8782" y="5.31874" width="132.001" height="129.818" filterUnits="userSpaceOnUse" color-interpolation-filters="sRGB">
<feFlood flood-opacity="0" result="BackgroundImageFix"/>
<feColorMatrix in="SourceAlpha" type="matrix" values="0 0 0 0 0 0 0 0 0 0 0 0 0 0 0 0 0 0 127 0" result="hardAlpha"/>
<feOffset dx="-2.41614" dy="-0.171178"/>
<feGaussianBlur stdDeviation="2.10465"/>
<feComposite in2="hardAlpha" operator="out"/>
<feColorMatrix type="matrix" values="0 0 0 0 0 0 0 0 0 0 0 0 0 0 0 0 0 0 0.92 0"/>
<feBlend mode="normal" in2="BackgroundImageFix" result="effect1_dropShadow_5_5225"/>
<feColorMatrix in="SourceAlpha" type="matrix" values="0 0 0 0 0 0 0 0 0 0 0 0 0 0 0 0 0 0 127 0" result="hardAlpha"/>
<feOffset dx="-5.05116" dy="0.28062"/>
<feGaussianBlur stdDeviation="2.10465"/>
<feComposite in2="hardAlpha" operator="out"/>
<feColorMatrix type="matrix" values="0 0 0 0 1 0 0 0 0 1 0 0 0 0 1 0 0 0 1 0"/>
<feBlend mode="normal" in2="effect1_dropShadow_5_5225" result="effect2_dropShadow_5_5225"/>
<feBlend mode="normal" in="SourceGraphic" in2="effect2_dropShadow_5_5225" result="shape"/>
</filter>
<filter id="filter2_d_5_5225" x="76.5474" y="41.0723" width="57.0049" height="57.8007" filterUnits="userSpaceOnUse" color-interpolation-filters="sRGB">
<feFlood flood-opacity="0" result="BackgroundImageFix"/>
<feColorMatrix in="SourceAlpha" type="matrix" values="0 0 0 0 0 0 0 0 0 0 0 0 0 0 0 0 0 0 127 0" result="hardAlpha"/>
<feOffset/>
<feGaussianBlur stdDeviation="1.0105"/>
<feColorMatrix type="matrix" values="0 0 0 0 0 0 0 0 0 0 0 0 0 0 0 0 0 0 0.25 0"/>
<feBlend mode="normal" in2="BackgroundImageFix" result="effect1_dropShadow_5_5225"/>
<feBlend mode="normal" in="SourceGraphic" in2="effect1_dropShadow_5_5225" result="shape"/>
</filter>
<filter id="filter3_d_5_5225" x="81.9556" y="41.072" width="57.0049" height="57.8007" filterUnits="userSpaceOnUse" color-interpolation-filters="sRGB">
<feFlood flood-opacity="0" result="BackgroundImageFix"/>
<feColorMatrix in="SourceAlpha" type="matrix" values="0 0 0 0 0 0 0 0 0 0 0 0 0 0 0 0 0 0 127 0" result="hardAlpha"/>
<feOffset/>
<feGaussianBlur stdDeviation="1.0105"/>
<feColorMatrix type="matrix" values="0 0 0 0 0 0 0 0 0 0 0 0 0 0 0 0 0 0 0.25 0"/>
<feBlend mode="normal" in2="BackgroundImageFix" result="effect1_dropShadow_5_5225"/>
<feBlend mode="normal" in="SourceGraphic" in2="effect1_dropShadow_5_5225" result="shape"/>
</filter>
</defs>
</svg>
