<svg width="216" height="124" viewBox="0 0 216 124" fill="none" xmlns="http://www.w3.org/2000/svg">
<g filter="url(#filter0_d_5_5226)">
<ellipse cx="107.774" cy="41.2448" rx="39.612" ry="39.755" fill="white" stroke="black" stroke-width="1.22449"/>
<g filter="url(#filter1_dd_5_5226)">
<path d="M142.831 41.2446C142.831 60.676 127.135 76.4282 107.774 76.4282C88.4124 76.4282 72.7168 60.676 72.7168 41.2446C72.7168 21.8133 88.4124 6.06104 107.774 6.06104C127.135 6.06104 142.831 21.8133 142.831 41.2446ZM74.4697 41.2446C74.4697 59.7044 89.3804 74.6691 107.774 74.6691C126.167 74.6691 141.078 59.7044 141.078 41.2446C141.078 22.7848 126.167 7.82022 107.774 7.82022C89.3804 7.82022 74.4697 22.7848 74.4697 41.2446Z" fill="#212121"/>
</g>
<g filter="url(#filter2_d_5_5226)">
<path d="M90.9375 25.4897L90.9375 56.7666L94.0724 54.6383L98.0371 40.573L121.641 54.6383L90.9375 25.4897Z" fill="#212121"/>
</g>
<g filter="url(#filter3_d_5_5226)">
<path d="M124.775 25.4895L124.775 56.7664L121.641 54.6381L117.676 40.5727L94.072 54.6381L124.775 25.4895Z" fill="#212121"/>
</g>
</g>
<path fill-rule="evenodd" clip-rule="evenodd" d="M109.043 1.01134V6.99207H107.793V1" fill="#212121"/>
<path fill-rule="evenodd" clip-rule="evenodd" d="M119.357 2.6425L117.813 8.42811L116.605 8.10366L118.154 2.30444" fill="#212121"/>
<path fill-rule="evenodd" clip-rule="evenodd" d="M127.823 6.26831C128.185 6.47705 128.544 6.69032 128.897 6.90813L125.915 12.0925L124.832 11.4663L127.823 6.26831Z" fill="#212121"/>
<path fill-rule="evenodd" clip-rule="evenodd" d="M136.135 12.6121C136.431 12.907 136.723 13.2042 137.01 13.5083L132.796 17.7374L131.912 16.8503L136.135 12.6121Z" fill="#212121"/>
<path fill-rule="evenodd" clip-rule="evenodd" d="M142.54 20.8889C142.75 21.2497 142.956 21.6127 143.157 21.9802L137.989 24.9751L137.365 23.8884L142.54 20.8889Z" fill="#212121"/>
<path fill-rule="evenodd" clip-rule="evenodd" d="M146.589 30.5518C146.697 30.9533 146.801 31.3595 146.898 31.7679L141.136 33.3175L140.812 32.1059L146.589 30.5518Z" fill="#212121"/>
<path fill-rule="evenodd" clip-rule="evenodd" d="M147.998 40.9368C147.998 41.0048 148 41.0752 148 41.1432C148 41.4926 147.996 41.842 147.987 42.1915H142.025V40.9368H147.998Z" fill="#212121"/>
<path fill-rule="evenodd" clip-rule="evenodd" d="M146.697 51.3349C146.591 51.741 146.478 52.1426 146.36 52.5442L140.596 50.9945L140.919 49.783L146.697 51.3349Z" fill="#212121"/>
<path fill-rule="evenodd" clip-rule="evenodd" d="M142.749 61.0388C142.541 61.4018 142.328 61.7626 142.111 62.1165L136.945 59.1239L137.569 58.0371L142.749 61.0388Z" fill="#212121"/>
<path fill-rule="evenodd" clip-rule="evenodd" d="M136.425 69.3811C136.131 69.6783 135.835 69.971 135.532 70.2591L131.318 66.0299L132.202 65.1428L136.425 69.3811Z" fill="#212121"/>
<path fill-rule="evenodd" clip-rule="evenodd" d="M127.092 76.4283L124.107 71.2417L125.19 70.6155L128.179 75.8112" fill="#212121"/>
<path fill-rule="evenodd" clip-rule="evenodd" d="M87.0977 75.378L90.0795 70.1936L91.1624 70.8198L88.1737 76.0178" fill="#212121"/>
<path fill-rule="evenodd" clip-rule="evenodd" d="M79.8612 69.674C79.5651 69.379 79.2734 69.0818 78.9863 68.7778L83.2003 64.5486L84.0842 65.4357L79.8612 69.674Z" fill="#212121"/>
<path fill-rule="evenodd" clip-rule="evenodd" d="M73.457 61.397C73.2468 61.0363 73.0388 60.6733 72.8398 60.3057L78.0078 57.3108L78.6318 58.3976L73.457 61.397Z" fill="#212121"/>
<path fill-rule="evenodd" clip-rule="evenodd" d="M69.4074 51.7342C69.2989 51.3304 69.1949 50.9265 69.0977 50.5181L74.8602 48.9685L75.1835 50.1801L69.4074 51.7342Z" fill="#212121"/>
<path fill-rule="evenodd" clip-rule="evenodd" d="M68.0113 40.095H73.9705V41.3497H68" fill="#212121"/>
<path fill-rule="evenodd" clip-rule="evenodd" d="M69.3008 30.9512C69.407 30.5451 69.5201 30.1435 69.6376 29.7441L75.4024 31.2938L75.0791 32.5054L69.3008 30.9512Z" fill="#212121"/>
<path fill-rule="evenodd" clip-rule="evenodd" d="M73.25 21.2471C73.458 20.8841 73.6705 20.5234 73.8875 20.1694L79.0532 23.1621L78.427 24.2489L73.25 21.2471Z" fill="#212121"/>
<path fill-rule="evenodd" clip-rule="evenodd" d="M79.5703 12.9049C79.8642 12.6077 80.1604 12.315 80.4633 12.0269L84.6772 16.256L83.7933 17.1431L79.5703 12.9049Z" fill="#212121"/>
<path fill-rule="evenodd" clip-rule="evenodd" d="M87.8164 6.47707C88.1759 6.26606 88.5376 6.05733 88.9038 5.85767L91.8879 11.0443L90.8051 11.6728L87.8164 6.47707Z" fill="#212121"/>
<path fill-rule="evenodd" clip-rule="evenodd" d="M98.6551 2.10278L100.199 7.88612L98.9919 8.21057L97.4434 2.41362" fill="#212121"/>
<rect x="105.738" y="50.3408" width="1.7813" height="1.78773" fill="#333333"/>
<rect x="105.738" y="52.6389" width="1.7813" height="1.78773" fill="#333333"/>
<rect x="108.029" y="50.3406" width="1.7813" height="1.78773" fill="#333333"/>
<rect x="108.029" y="52.6389" width="1.7813" height="1.78773" fill="#333333"/>
<path d="M23.76 99.96L18.72 108.96H13.68L8.64 99.96V114H2.16V88.8H9L16.2 102.12L23.4 88.8H30.24V114H23.76V99.96ZM33.4941 103.92V98.88H48.2541V103.92H33.4941ZM51.4842 88.8H65.8842C68.2362 88.8 69.9642 89.34 71.0682 90.42C72.1722 91.476 72.7242 93.096 72.7242 95.28C72.7242 96.72 72.4122 97.896 71.7882 98.808C71.1642 99.696 70.3962 100.32 69.4842 100.68C71.4282 101.208 72.7482 102.504 73.4442 104.568C73.6842 105.312 73.8042 106.176 73.8042 107.16C73.8042 109.512 73.2522 111.24 72.1482 112.344C71.0442 113.448 69.3162 114 66.9642 114H51.4842V88.8ZM67.3242 106.08C67.3242 104.64 66.6042 103.92 65.1642 103.92H57.9642V108.96H65.1642C66.6042 108.96 67.3242 108.24 67.3242 106.8V106.08ZM66.2442 96C66.2442 94.56 65.5242 93.84 64.0842 93.84H57.9642V98.88H64.0842C65.5242 98.88 66.2442 98.16 66.2442 96.72V96ZM85.5028 109.14C86.7748 109.14 88.2148 108.9 89.8228 108.42V94.92H96.1228V114H90.5428L90.1828 112.2C89.0548 112.944 87.8908 113.496 86.6908 113.856C85.5148 114.192 84.5188 114.36 83.7028 114.36H82.0828C80.4508 114.36 79.1428 113.868 78.1588 112.884C77.1748 111.9 76.6828 110.592 76.6828 108.96V94.92H82.9828V107.88C82.9828 108.24 83.1028 108.54 83.3428 108.78C83.5828 109.02 83.8828 109.14 84.2428 109.14H85.5028ZM98.9902 108.96C103.862 109.32 107.702 109.5 110.51 109.5C110.87 109.5 111.17 109.38 111.41 109.14C111.65 108.9 111.77 108.6 111.77 108.24V106.98H104.03C102.398 106.98 101.09 106.488 100.106 105.504C99.1222 104.52 98.6302 103.212 98.6302 101.58V100.32C98.6302 98.688 99.1222 97.38 100.106 96.396C101.09 95.412 102.398 94.92 104.03 94.92H116.27V99.6H106.19C105.83 99.6 105.53 99.72 105.29 99.96C105.05 100.2 104.93 100.5 104.93 100.86C104.93 101.22 105.05 101.52 105.29 101.76C105.53 102 105.83 102.12 106.19 102.12H112.67C114.302 102.12 115.61 102.612 116.594 103.596C117.578 104.58 118.07 105.888 118.07 107.52V108.96C118.07 110.592 117.578 111.9 116.594 112.884C115.61 113.868 114.302 114.36 112.67 114.36C108.422 114.36 103.862 114.12 98.9902 113.64V108.96ZM128.161 95.64V114H121.861V100.5H119.161V95.64H128.161ZM121.861 88.44H128.161V93.48H121.861V88.44ZM142.393 99.78C141.121 99.78 139.681 100.02 138.073 100.5V114H131.773V94.92H137.353L137.713 96.72C138.841 95.976 139.993 95.436 141.169 95.1C142.369 94.74 143.377 94.56 144.193 94.56H145.813C147.445 94.56 148.753 95.052 149.737 96.036C150.721 97.02 151.213 98.328 151.213 99.96V114H144.913V101.04C144.913 100.68 144.793 100.38 144.553 100.14C144.313 99.9 144.013 99.78 143.653 99.78H142.393ZM161.828 99.06C160.868 99.06 160.388 99.54 160.388 100.5V102.48H166.508V100.5C166.508 99.54 166.028 99.06 165.068 99.06H161.828ZM172.088 113.64C167.456 114.12 163.256 114.36 159.488 114.36C157.856 114.36 156.548 113.868 155.564 112.884C154.58 111.9 154.088 110.592 154.088 108.96V100.32C154.088 98.52 154.592 97.116 155.6 96.108C156.632 95.076 158.048 94.56 159.848 94.56H167.048C168.848 94.56 170.252 95.076 171.26 96.108C172.292 97.116 172.808 98.52 172.808 100.32V106.98H160.388V108.42C160.388 108.78 160.508 109.08 160.748 109.32C160.988 109.56 161.288 109.68 161.648 109.68C164.024 109.68 167.504 109.5 172.088 109.14V113.64ZM175.314 108.96C180.186 109.32 184.026 109.5 186.834 109.5C187.194 109.5 187.494 109.38 187.734 109.14C187.974 108.9 188.094 108.6 188.094 108.24V106.98H180.354C178.722 106.98 177.414 106.488 176.43 105.504C175.446 104.52 174.954 103.212 174.954 101.58V100.32C174.954 98.688 175.446 97.38 176.43 96.396C177.414 95.412 178.722 94.92 180.354 94.92H192.594V99.6H182.514C182.154 99.6 181.854 99.72 181.614 99.96C181.374 100.2 181.254 100.5 181.254 100.86C181.254 101.22 181.374 101.52 181.614 101.76C181.854 102 182.154 102.12 182.514 102.12H188.994C190.626 102.12 191.934 102.612 192.918 103.596C193.902 104.58 194.394 105.888 194.394 107.52V108.96C194.394 110.592 193.902 111.9 192.918 112.884C191.934 113.868 190.626 114.36 188.994 114.36C184.746 114.36 180.186 114.12 175.314 113.64V108.96ZM196.197 108.96C201.069 109.32 204.909 109.5 207.717 109.5C208.077 109.5 208.377 109.38 208.617 109.14C208.857 108.9 208.977 108.6 208.977 108.24V106.98H201.237C199.605 106.98 198.297 106.488 197.313 105.504C196.329 104.52 195.837 103.212 195.837 101.58V100.32C195.837 98.688 196.329 97.38 197.313 96.396C198.297 95.412 199.605 94.92 201.237 94.92H213.477V99.6H203.397C203.037 99.6 202.737 99.72 202.497 99.96C202.257 100.2 202.137 100.5 202.137 100.86C202.137 101.22 202.257 101.52 202.497 101.76C202.737 102 203.037 102.12 203.397 102.12H209.877C211.509 102.12 212.817 102.612 213.801 103.596C214.785 104.58 215.277 105.888 215.277 107.52V108.96C215.277 110.592 214.785 111.9 213.801 112.884C212.817 113.868 211.509 114.36 209.877 114.36C205.629 114.36 201.069 114.12 196.197 113.64V108.96Z" fill="white"/>
<defs>
<filter id="filter0_d_5_5226" x="67.061" y="0.877441" width="81.4269" height="81.7142" filterUnits="userSpaceOnUse" color-interpolation-filters="sRGB">
<feFlood flood-opacity="0" result="BackgroundImageFix"/>
<feColorMatrix in="SourceAlpha" type="matrix" values="0 0 0 0 0 0 0 0 0 0 0 0 0 0 0 0 0 0 127 0" result="hardAlpha"/>
<feOffset dy="0.489796"/>
<feGaussianBlur stdDeviation="0.244898"/>
<feComposite in2="hardAlpha" operator="out"/>
<feColorMatrix type="matrix" values="0 0 0 0 0 0 0 0 0 0 0 0 0 0 0 0 0 0 0.25 0"/>
<feBlend mode="normal" in2="BackgroundImageFix" result="effect1_dropShadow_5_5226"/>
<feBlend mode="normal" in="SourceGraphic" in2="effect1_dropShadow_5_5226" result="shape"/>
</filter>
<filter id="filter1_dd_5_5226" x="68.676" y="4.14961" width="74.9365" height="74.2378" filterUnits="userSpaceOnUse" color-interpolation-filters="sRGB">
<feFlood flood-opacity="0" result="BackgroundImageFix"/>
<feColorMatrix in="SourceAlpha" type="matrix" values="0 0 0 0 0 0 0 0 0 0 0 0 0 0 0 0 0 0 127 0" result="hardAlpha"/>
<feOffset dx="-1.05429" dy="-0.0746938"/>
<feGaussianBlur stdDeviation="0.918367"/>
<feComposite in2="hardAlpha" operator="out"/>
<feColorMatrix type="matrix" values="0 0 0 0 0 0 0 0 0 0 0 0 0 0 0 0 0 0 0.92 0"/>
<feBlend mode="normal" in2="BackgroundImageFix" result="effect1_dropShadow_5_5226"/>
<feColorMatrix in="SourceAlpha" type="matrix" values="0 0 0 0 0 0 0 0 0 0 0 0 0 0 0 0 0 0 127 0" result="hardAlpha"/>
<feOffset dx="-2.20408" dy="0.122449"/>
<feGaussianBlur stdDeviation="0.918367"/>
<feComposite in2="hardAlpha" operator="out"/>
<feColorMatrix type="matrix" values="0 0 0 0 1 0 0 0 0 1 0 0 0 0 1 0 0 0 1 0"/>
<feBlend mode="normal" in2="effect1_dropShadow_5_5226" result="effect2_dropShadow_5_5226"/>
<feBlend mode="normal" in="SourceGraphic" in2="effect2_dropShadow_5_5226" result="shape"/>
</filter>
<filter id="filter2_d_5_5226" x="90.0556" y="24.6079" width="32.4669" height="33.0406" filterUnits="userSpaceOnUse" color-interpolation-filters="sRGB">
<feFlood flood-opacity="0" result="BackgroundImageFix"/>
<feColorMatrix in="SourceAlpha" type="matrix" values="0 0 0 0 0 0 0 0 0 0 0 0 0 0 0 0 0 0 127 0" result="hardAlpha"/>
<feOffset/>
<feGaussianBlur stdDeviation="0.440934"/>
<feColorMatrix type="matrix" values="0 0 0 0 0 0 0 0 0 0 0 0 0 0 0 0 0 0 0.25 0"/>
<feBlend mode="normal" in2="BackgroundImageFix" result="effect1_dropShadow_5_5226"/>
<feBlend mode="normal" in="SourceGraphic" in2="effect1_dropShadow_5_5226" result="shape"/>
</filter>
<filter id="filter3_d_5_5226" x="93.1904" y="24.6076" width="32.4669" height="33.0406" filterUnits="userSpaceOnUse" color-interpolation-filters="sRGB">
<feFlood flood-opacity="0" result="BackgroundImageFix"/>
<feColorMatrix in="SourceAlpha" type="matrix" values="0 0 0 0 0 0 0 0 0 0 0 0 0 0 0 0 0 0 127 0" result="hardAlpha"/>
<feOffset/>
<feGaussianBlur stdDeviation="0.440934"/>
<feColorMatrix type="matrix" values="0 0 0 0 0 0 0 0 0 0 0 0 0 0 0 0 0 0 0.25 0"/>
<feBlend mode="normal" in2="BackgroundImageFix" result="effect1_dropShadow_5_5226"/>
<feBlend mode="normal" in="SourceGraphic" in2="effect1_dropShadow_5_5226" result="shape"/>
</filter>
</defs>
</svg>
