<svg width="30" height="30" viewBox="0 0 30 30" fill="none" xmlns="http://www.w3.org/2000/svg">
<g clip-path="url(#clip0_2_26835)">
<path d="M11 25.3333V17.3333C11 16.5969 10.403 15.9999 9.66667 15.9999H4.33333C3.59695 15.9999 3 16.5969 3 17.3333V25.3333C3 26.0696 3.59695 26.6666 4.33333 26.6666M11 25.3333C11 26.0696 10.403 26.6666 9.66667 26.6666H4.33333M11 25.3333C11 26.0696 11.597 26.6666 12.3333 26.6666H17.6667C18.403 26.6666 19 26.0696 19 25.3333M11 25.3333V11.9999C11 11.2635 11.597 10.6666 12.3333 10.6666H17.6667C18.403 10.6666 19 11.2635 19 11.9999V25.3333M4.33333 26.6666H23M19 25.3333C19 26.0696 19.597 26.6666 20.3333 26.6666H25.6667C26.403 26.6666 27 26.0696 27 25.3333V6.66659C27 5.93021 26.403 5.33325 25.6667 5.33325H20.3333C19.597 5.33325 19 5.93021 19 6.66659V25.3333Z" stroke="white" stroke-width="2" stroke-linecap="round" stroke-linejoin="round"/>
</g>
<defs>
<clipPath id="clip0_2_26835">
<rect width="30" height="30" fill="white"/>
</clipPath>
</defs>
</svg>
