<svg width="36" height="36" viewBox="0 0 36 36" fill="none" xmlns="http://www.w3.org/2000/svg">
<path d="M24 24V27C24 27.7956 23.6839 28.5587 23.1213 29.1213C22.5587 29.6839 21.7956 30 21 30H9C8.20435 30 7.44129 29.6839 6.87868 29.1213C6.31607 28.5587 6 27.7956 6 27V15C6 14.2044 6.31607 13.4413 6.87868 12.8787C7.44129 12.3161 8.20435 12 9 12H12M15 6H27C28.6569 6 30 7.34315 30 9V21C30 22.6569 28.6569 24 27 24H15C13.3431 24 12 22.6569 12 21V9C12 7.34315 13.3431 6 15 6Z" stroke="white" stroke-width="2" stroke-linecap="round" stroke-linejoin="round"/>
</svg>
