<svg width="38" height="38" viewBox="0 0 38 38" fill="none" xmlns="http://www.w3.org/2000/svg">
<path d="M7.91667 11.0835H9.5C10.3399 11.0835 11.1453 10.7499 11.7392 10.156C12.333 9.56214 12.6667 8.75668 12.6667 7.91683C12.6667 7.4969 12.8335 7.09418 13.1304 6.79724C13.4273 6.50031 13.8301 6.3335 14.25 6.3335H23.75C24.1699 6.3335 24.5727 6.50031 24.8696 6.79724C25.1665 7.09418 25.3333 7.4969 25.3333 7.91683C25.3333 8.75668 25.667 9.56214 26.2608 10.156C26.8547 10.7499 27.6601 11.0835 28.5 11.0835H30.0833C30.9232 11.0835 31.7286 11.4171 32.3225 12.011C32.9164 12.6049 33.25 13.4103 33.25 14.2502V28.5002C33.25 29.34 32.9164 30.1455 32.3225 30.7393C31.7286 31.3332 30.9232 31.6668 30.0833 31.6668H7.91667C7.07681 31.6668 6.27136 31.3332 5.6775 30.7393C5.08363 30.1455 4.75 29.34 4.75 28.5002V14.2502C4.75 13.4103 5.08363 12.6049 5.6775 12.011C6.27136 11.4171 7.07681 11.0835 7.91667 11.0835Z" stroke="white" stroke-width="2" stroke-linecap="round" stroke-linejoin="round"/>
<path d="M19 25.3335C21.6234 25.3335 23.75 23.2068 23.75 20.5835C23.75 17.9601 21.6234 15.8335 19 15.8335C16.3766 15.8335 14.25 17.9601 14.25 20.5835C14.25 23.2068 16.3766 25.3335 19 25.3335Z" stroke="white" stroke-width="2" stroke-linecap="round" stroke-linejoin="round"/>
</svg>
