<svg width="38" height="38" viewBox="0 0 38 38" fill="none" xmlns="http://www.w3.org/2000/svg">
<path d="M7.91667 11.0834H9.5C10.3399 11.0834 11.1453 10.7497 11.7392 10.1559C12.333 9.56201 12.6667 8.75656 12.6667 7.91671C12.6667 7.49678 12.8335 7.09405 13.1304 6.79712C13.4273 6.50019 13.8301 6.33337 14.25 6.33337H23.75C24.1699 6.33337 24.5727 6.50019 24.8696 6.79712C25.1665 7.09405 25.3333 7.49678 25.3333 7.91671C25.3333 8.75656 25.667 9.56201 26.2608 10.1559C26.8547 10.7497 27.6601 11.0834 28.5 11.0834H30.0833C30.9232 11.0834 31.7286 11.417 32.3225 12.0109C32.9164 12.6047 33.25 13.4102 33.25 14.25V28.5C33.25 29.3399 32.9164 30.1453 32.3225 30.7392C31.7286 31.3331 30.9232 31.6667 30.0833 31.6667H7.91667C7.07681 31.6667 6.27136 31.3331 5.6775 30.7392C5.08363 30.1453 4.75 29.3399 4.75 28.5V14.25C4.75 13.4102 5.08363 12.6047 5.6775 12.0109C6.27136 11.417 7.07681 11.0834 7.91667 11.0834Z" stroke="#080808" stroke-width="2" stroke-linecap="round" stroke-linejoin="round"/>
<path d="M19 25.3334C21.6234 25.3334 23.75 23.2067 23.75 20.5834C23.75 17.96 21.6234 15.8334 19 15.8334C16.3766 15.8334 14.25 17.96 14.25 20.5834C14.25 23.2067 16.3766 25.3334 19 25.3334Z" stroke="#080808" stroke-width="2" stroke-linecap="round" stroke-linejoin="round"/>
</svg>
