<svg width="30" height="30" viewBox="0 0 30 30" fill="none" xmlns="http://www.w3.org/2000/svg">
<path d="M6.25 8.75H7.5C8.16304 8.75 8.79893 8.48661 9.26777 8.01777C9.73661 7.54893 10 6.91304 10 6.25C10 5.91848 10.1317 5.60054 10.3661 5.36612C10.6005 5.1317 10.9185 5 11.25 5H18.75C19.0815 5 19.3995 5.1317 19.6339 5.36612C19.8683 5.60054 20 5.91848 20 6.25C20 6.91304 20.2634 7.54893 20.7322 8.01777C21.2011 8.48661 21.837 8.75 22.5 8.75H23.75C24.413 8.75 25.0489 9.01339 25.5178 9.48223C25.9866 9.95107 26.25 10.587 26.25 11.25V22.5C26.25 23.163 25.9866 23.7989 25.5178 24.2678C25.0489 24.7366 24.413 25 23.75 25H6.25C5.58696 25 4.95107 24.7366 4.48223 24.2678C4.01339 23.7989 3.75 23.163 3.75 22.5V11.25C3.75 10.587 4.01339 9.95107 4.48223 9.48223C4.95107 9.01339 5.58696 8.75 6.25 8.75Z" stroke="white" stroke-width="1.71429" stroke-linecap="round" stroke-linejoin="round"/>
<path d="M15 20C17.0711 20 18.75 18.3211 18.75 16.25C18.75 14.1789 17.0711 12.5 15 12.5C12.9289 12.5 11.25 14.1789 11.25 16.25C11.25 18.3211 12.9289 20 15 20Z" stroke="white" stroke-width="1.71429" stroke-linecap="round" stroke-linejoin="round"/>
</svg>
