<svg width="30" height="30" viewBox="0 0 30 30" fill="none" xmlns="http://www.w3.org/2000/svg">
<g clip-path="url(#clip0_2_27480)">
<path d="M27 13.6667V9.66667C27 8.95942 26.719 8.28115 26.219 7.78105C25.7189 7.28095 25.0406 7 24.3333 7H16.3333M16.3333 7L20.3333 11M16.3333 7L20.3333 3M3 16.3333V20.3333C3 21.0406 3.28095 21.7189 3.78105 22.219C4.28115 22.719 4.95942 23 5.66667 23H13.6667M13.6667 23L9.66667 19M13.6667 23L9.66667 27M4.33333 3H9.66667C10.403 3 11 3.59695 11 4.33333V9.66667C11 10.403 10.403 11 9.66667 11H4.33333C3.59695 11 3 10.403 3 9.66667V4.33333C3 3.59695 3.59695 3 4.33333 3ZM20.3333 19H25.6667C26.403 19 27 19.597 27 20.3333V25.6667C27 26.403 26.403 27 25.6667 27H20.3333C19.597 27 19 26.403 19 25.6667V20.3333C19 19.597 19.597 19 20.3333 19Z" stroke="white" stroke-width="2" stroke-linecap="round" stroke-linejoin="round"/>
</g>
<defs>
<clipPath id="clip0_2_27480">
<rect width="30" height="30" fill="white"/>
</clipPath>
</defs>
</svg>
