<svg width="42" height="42" viewBox="0 0 42 42" fill="none" xmlns="http://www.w3.org/2000/svg">
<path d="M29.75 15.75V12.25C29.75 11.3217 29.3813 10.4315 28.7249 9.77513C28.0685 9.11875 27.1783 8.75 26.25 8.75H8.75C7.82174 8.75 6.9315 9.11875 6.27513 9.77513C5.61875 10.4315 5.25 11.3217 5.25 12.25V22.75C5.25 23.6783 5.61875 24.5685 6.27513 25.2249C6.9315 25.8813 7.82174 26.25 8.75 26.25H12.25M15.75 15.75H33.25C35.183 15.75 36.75 17.317 36.75 19.25V29.75C36.75 31.683 35.183 33.25 33.25 33.25H15.75C13.817 33.25 12.25 31.683 12.25 29.75V19.25C12.25 17.317 13.817 15.75 15.75 15.75ZM28 24.5C28 26.433 26.433 28 24.5 28C22.567 28 21 26.433 21 24.5C21 22.567 22.567 21 24.5 21C26.433 21 28 22.567 28 24.5Z" stroke="white" stroke-width="2" stroke-linecap="round" stroke-linejoin="round"/>
</svg>
