<svg width="42" height="42" viewBox="0 0 42 42" fill="none" xmlns="http://www.w3.org/2000/svg">
<path d="M31.5 21H31.5175M10.5 21H10.5175M26.25 21C26.25 23.8995 23.8995 26.25 21 26.25C18.1005 26.25 15.75 23.8995 15.75 21C15.75 18.1005 18.1005 15.75 21 15.75C23.8995 15.75 26.25 18.1005 26.25 21ZM8.75 10.5H33.25C35.183 10.5 36.75 12.067 36.75 14V28C36.75 29.933 35.183 31.5 33.25 31.5H8.75C6.817 31.5 5.25 29.933 5.25 28V14C5.25 12.067 6.817 10.5 8.75 10.5Z" stroke="white" stroke-width="2" stroke-linecap="round" stroke-linejoin="round"/>
</svg>
