<svg width="38" height="38" viewBox="0 0 38 38" fill="none" xmlns="http://www.w3.org/2000/svg">
<path d="M22.167 4.75V11.0833C22.167 11.5033 22.3338 11.906 22.6307 12.2029C22.9277 12.4999 23.3304 12.6667 23.7503 12.6667H30.0837M22.167 4.75H11.0837C10.2438 4.75 9.43835 5.08363 8.84449 5.6775C8.25062 6.27136 7.91699 7.07681 7.91699 7.91667V30.0833C7.91699 30.9232 8.25062 31.7286 8.84449 32.3225C9.43835 32.9164 10.2438 33.25 11.0837 33.25H18.2087M22.167 4.75L30.0837 12.6667M30.0837 12.6667V20.5833M22.167 30.0833H33.2503M33.2503 30.0833L28.5003 25.3333M33.2503 30.0833L28.5003 34.8333" stroke="black" stroke-width="2" stroke-linecap="round" stroke-linejoin="round"/>
</svg>
