<svg width="331" height="209" viewBox="0 0 331 209" fill="none" xmlns="http://www.w3.org/2000/svg">
<mask id="mask0_2_26739" style="mask-type:alpha" maskUnits="userSpaceOnUse" x="0" y="0" width="331" height="209">
<rect width="331" height="209" fill="white"/>
</mask>
<g mask="url(#mask0_2_26739)">
<rect width="331" height="209" fill="#1E1E21"/>
<path d="M-165.5 18.75C-165.5 18.75 -124.125 11.25 -82.75 11.25C-41.375 11.25 1.19209e-07 18.75 1.19209e-07 18.75C1.19209e-07 18.75 41.375 26.25 82.75 26.25C124.125 26.25 165.5 18.75 165.5 18.75C165.5 18.75 206.875 11.25 248.25 11.25C289.625 11.25 331 18.75 331 18.75C331 18.75 372.375 26.25 413.75 26.25C455.125 26.25 496.5 18.75 496.5 18.75" stroke="white" stroke-opacity="0.11" stroke-width="2.5"/>
<path d="M-165.5 64.75C-165.5 64.75 -124.125 57.25 -82.75 57.25C-41.375 57.25 1.19209e-07 64.75 1.19209e-07 64.75C1.19209e-07 64.75 41.375 72.25 82.75 72.25C124.125 72.25 165.5 64.75 165.5 64.75C165.5 64.75 206.875 57.25 248.25 57.25C289.625 57.25 331 64.75 331 64.75C331 64.75 372.375 72.25 413.75 72.25C455.125 72.25 496.5 64.75 496.5 64.75" stroke="white" stroke-opacity="0.11" stroke-width="2.5"/>
<path d="M-165.5 110.75C-165.5 110.75 -124.125 103.25 -82.75 103.25C-41.375 103.25 1.19209e-07 110.75 1.19209e-07 110.75C1.19209e-07 110.75 41.375 118.25 82.75 118.25C124.125 118.25 165.5 110.75 165.5 110.75C165.5 110.75 206.875 103.25 248.25 103.25C289.625 103.25 331 110.75 331 110.75C331 110.75 372.375 118.25 413.75 118.25C455.125 118.25 496.5 110.75 496.5 110.75" stroke="white" stroke-opacity="0.11" stroke-width="2.5"/>
<path d="M-165.5 156.75C-165.5 156.75 -124.125 149.25 -82.75 149.25C-41.375 149.25 1.19209e-07 156.75 1.19209e-07 156.75C1.19209e-07 156.75 41.375 164.25 82.75 164.25C124.125 164.25 165.5 156.75 165.5 156.75C165.5 156.75 206.875 149.25 248.25 149.25C289.625 149.25 331 156.75 331 156.75C331 156.75 372.375 164.25 413.75 164.25C455.125 164.25 496.5 156.75 496.5 156.75" stroke="white" stroke-opacity="0.11" stroke-width="2.5"/>
<path d="M-165.5 202.75C-165.5 202.75 -124.125 195.25 -82.75 195.25C-41.375 195.25 1.19209e-07 202.75 1.19209e-07 202.75C1.19209e-07 202.75 41.375 210.25 82.75 210.25C124.125 210.25 165.5 202.75 165.5 202.75C165.5 202.75 206.875 195.25 248.25 195.25C289.625 195.25 331 202.75 331 202.75C331 202.75 372.375 210.25 413.75 210.25C455.125 210.25 496.5 202.75 496.5 202.75" stroke="white" stroke-opacity="0.11" stroke-width="2.5"/>
<path d="M-165.5 11.25C-165.5 11.25 -124.125 3.75 -82.75 3.75C-41.375 3.75 1.19209e-07 11.25 1.19209e-07 11.25C1.19209e-07 11.25 41.375 18.75 82.75 18.75C124.125 18.75 165.5 11.25 165.5 11.25C165.5 11.25 206.875 3.75 248.25 3.75C289.625 3.75 331 11.25 331 11.25C331 11.25 372.375 18.75 413.75 18.75C455.125 18.75 496.5 11.25 496.5 11.25" stroke="white" stroke-opacity="0.11" stroke-width="2.5"/>
<path d="M-165.5 57.25C-165.5 57.25 -124.125 49.75 -82.75 49.75C-41.375 49.75 1.19209e-07 57.25 1.19209e-07 57.25C1.19209e-07 57.25 41.375 64.75 82.75 64.75C124.125 64.75 165.5 57.25 165.5 57.25C165.5 57.25 206.875 49.75 248.25 49.75C289.625 49.75 331 57.25 331 57.25C331 57.25 372.375 64.75 413.75 64.75C455.125 64.75 496.5 57.25 496.5 57.25" stroke="white" stroke-opacity="0.11" stroke-width="2.5"/>
<path d="M-165.5 103.25C-165.5 103.25 -124.125 95.75 -82.75 95.75C-41.375 95.75 1.19209e-07 103.25 1.19209e-07 103.25C1.19209e-07 103.25 41.375 110.75 82.75 110.75C124.125 110.75 165.5 103.25 165.5 103.25C165.5 103.25 206.875 95.75 248.25 95.75C289.625 95.75 331 103.25 331 103.25C331 103.25 372.375 110.75 413.75 110.75C455.125 110.75 496.5 103.25 496.5 103.25" stroke="white" stroke-opacity="0.11" stroke-width="2.5"/>
<path d="M-165.5 149.25C-165.5 149.25 -124.125 141.75 -82.75 141.75C-41.375 141.75 1.19209e-07 149.25 1.19209e-07 149.25C1.19209e-07 149.25 41.375 156.75 82.75 156.75C124.125 156.75 165.5 149.25 165.5 149.25C165.5 149.25 206.875 141.75 248.25 141.75C289.625 141.75 331 149.25 331 149.25C331 149.25 372.375 156.75 413.75 156.75C455.125 156.75 496.5 149.25 496.5 149.25" stroke="white" stroke-opacity="0.11" stroke-width="2.5"/>
<path d="M-165.5 195.25C-165.5 195.25 -124.125 187.75 -82.75 187.75C-41.375 187.75 1.19209e-07 195.25 1.19209e-07 195.25C1.19209e-07 195.25 41.375 202.75 82.75 202.75C124.125 202.75 165.5 195.25 165.5 195.25C165.5 195.25 206.875 187.75 248.25 187.75C289.625 187.75 331 195.25 331 195.25C331 195.25 372.375 202.75 413.75 202.75C455.125 202.75 496.5 195.25 496.5 195.25" stroke="white" stroke-opacity="0.11" stroke-width="2.5"/>
<path d="M-165.5 26.25C-165.5 26.25 -124.125 18.75 -82.75 18.75C-41.375 18.75 1.19209e-07 26.25 1.19209e-07 26.25C1.19209e-07 26.25 41.375 33.75 82.75 33.75C124.125 33.75 165.5 26.25 165.5 26.25C165.5 26.25 206.875 18.75 248.25 18.75C289.625 18.75 331 26.25 331 26.25C331 26.25 372.375 33.75 413.75 33.75C455.125 33.75 496.5 26.25 496.5 26.25" stroke="white" stroke-opacity="0.11" stroke-width="2.5"/>
<path d="M-165.5 72.25C-165.5 72.25 -124.125 64.75 -82.75 64.75C-41.375 64.75 1.19209e-07 72.25 1.19209e-07 72.25C1.19209e-07 72.25 41.375 79.75 82.75 79.75C124.125 79.75 165.5 72.25 165.5 72.25C165.5 72.25 206.875 64.75 248.25 64.75C289.625 64.75 331 72.25 331 72.25C331 72.25 372.375 79.75 413.75 79.75C455.125 79.75 496.5 72.25 496.5 72.25" stroke="white" stroke-opacity="0.11" stroke-width="2.5"/>
<path d="M-165.5 118.25C-165.5 118.25 -124.125 110.75 -82.75 110.75C-41.375 110.75 1.19209e-07 118.25 1.19209e-07 118.25C1.19209e-07 118.25 41.375 125.75 82.75 125.75C124.125 125.75 165.5 118.25 165.5 118.25C165.5 118.25 206.875 110.75 248.25 110.75C289.625 110.75 331 118.25 331 118.25C331 118.25 372.375 125.75 413.75 125.75C455.125 125.75 496.5 118.25 496.5 118.25" stroke="white" stroke-opacity="0.11" stroke-width="2.5"/>
<path d="M-165.5 164.25C-165.5 164.25 -124.125 156.75 -82.75 156.75C-41.375 156.75 1.19209e-07 164.25 1.19209e-07 164.25C1.19209e-07 164.25 41.375 171.75 82.75 171.75C124.125 171.75 165.5 164.25 165.5 164.25C165.5 164.25 206.875 156.75 248.25 156.75C289.625 156.75 331 164.25 331 164.25C331 164.25 372.375 171.75 413.75 171.75C455.125 171.75 496.5 164.25 496.5 164.25" stroke="white" stroke-opacity="0.11" stroke-width="2.5"/>
<path d="M-165.5 210.25C-165.5 210.25 -124.125 202.75 -82.75 202.75C-41.375 202.75 1.19209e-07 210.25 1.19209e-07 210.25C1.19209e-07 210.25 41.375 217.75 82.75 217.75C124.125 217.75 165.5 210.25 165.5 210.25C165.5 210.25 206.875 202.75 248.25 202.75C289.625 202.75 331 210.25 331 210.25C331 210.25 372.375 217.75 413.75 217.75C455.125 217.75 496.5 210.25 496.5 210.25" stroke="white" stroke-opacity="0.11" stroke-width="2.5"/>
<path d="M-165.5 3.75C-165.5 3.75 -124.125 -3.75 -82.75 -3.75C-41.375 -3.75 1.19209e-07 3.75 1.19209e-07 3.75C1.19209e-07 3.75 41.375 11.25 82.75 11.25C124.125 11.25 165.5 3.75 165.5 3.75C165.5 3.75 206.875 -3.75 248.25 -3.75C289.625 -3.75 331 3.75 331 3.75C331 3.75 372.375 11.25 413.75 11.25C455.125 11.25 496.5 3.75 496.5 3.75" stroke="white" stroke-opacity="0.11" stroke-width="2.5"/>
<path d="M-165.5 49.75C-165.5 49.75 -124.125 42.25 -82.75 42.25C-41.375 42.25 1.19209e-07 49.75 1.19209e-07 49.75C1.19209e-07 49.75 41.375 57.25 82.75 57.25C124.125 57.25 165.5 49.75 165.5 49.75C165.5 49.75 206.875 42.25 248.25 42.25C289.625 42.25 331 49.75 331 49.75C331 49.75 372.375 57.25 413.75 57.25C455.125 57.25 496.5 49.75 496.5 49.75" stroke="white" stroke-opacity="0.11" stroke-width="2.5"/>
<path d="M-165.5 95.75C-165.5 95.75 -124.125 88.25 -82.75 88.25C-41.375 88.25 1.19209e-07 95.75 1.19209e-07 95.75C1.19209e-07 95.75 41.375 103.25 82.75 103.25C124.125 103.25 165.5 95.75 165.5 95.75C165.5 95.75 206.875 88.25 248.25 88.25C289.625 88.25 331 95.75 331 95.75C331 95.75 372.375 103.25 413.75 103.25C455.125 103.25 496.5 95.75 496.5 95.75" stroke="white" stroke-opacity="0.11" stroke-width="2.5"/>
<path d="M-165.5 141.75C-165.5 141.75 -124.125 134.25 -82.75 134.25C-41.375 134.25 1.19209e-07 141.75 1.19209e-07 141.75C1.19209e-07 141.75 41.375 149.25 82.75 149.25C124.125 149.25 165.5 141.75 165.5 141.75C165.5 141.75 206.875 134.25 248.25 134.25C289.625 134.25 331 141.75 331 141.75C331 141.75 372.375 149.25 413.75 149.25C455.125 149.25 496.5 141.75 496.5 141.75" stroke="white" stroke-opacity="0.11" stroke-width="2.5"/>
<path d="M-165.5 187.75C-165.5 187.75 -124.125 180.25 -82.75 180.25C-41.375 180.25 1.19209e-07 187.75 1.19209e-07 187.75C1.19209e-07 187.75 41.375 195.25 82.75 195.25C124.125 195.25 165.5 187.75 165.5 187.75C165.5 187.75 206.875 180.25 248.25 180.25C289.625 180.25 331 187.75 331 187.75C331 187.75 372.375 195.25 413.75 195.25C455.125 195.25 496.5 187.75 496.5 187.75" stroke="white" stroke-opacity="0.11" stroke-width="2.5"/>
<path d="M-165.5 -3.75C-165.5 -3.75 -124.125 -11.25 -82.75 -11.25C-41.375 -11.25 1.19209e-07 -3.75 1.19209e-07 -3.75C1.19209e-07 -3.75 41.375 3.75 82.75 3.75C124.125 3.75 165.5 -3.75 165.5 -3.75C165.5 -3.75 206.875 -11.25 248.25 -11.25C289.625 -11.25 331 -3.75 331 -3.75C331 -3.75 372.375 3.75 413.75 3.75C455.125 3.75 496.5 -3.75 496.5 -3.75" stroke="white" stroke-opacity="0.11" stroke-width="2.5"/>
<path d="M-165.5 42.25C-165.5 42.25 -124.125 34.75 -82.75 34.75C-41.375 34.75 1.19209e-07 42.25 1.19209e-07 42.25C1.19209e-07 42.25 41.375 49.75 82.75 49.75C124.125 49.75 165.5 42.25 165.5 42.25C165.5 42.25 206.875 34.75 248.25 34.75C289.625 34.75 331 42.25 331 42.25C331 42.25 372.375 49.75 413.75 49.75C455.125 49.75 496.5 42.25 496.5 42.25" stroke="white" stroke-opacity="0.11" stroke-width="2.5"/>
<path d="M-165.5 88.25C-165.5 88.25 -124.125 80.75 -82.75 80.75C-41.375 80.75 1.19209e-07 88.25 1.19209e-07 88.25C1.19209e-07 88.25 41.375 95.75 82.75 95.75C124.125 95.75 165.5 88.25 165.5 88.25C165.5 88.25 206.875 80.75 248.25 80.75C289.625 80.75 331 88.25 331 88.25C331 88.25 372.375 95.75 413.75 95.75C455.125 95.75 496.5 88.25 496.5 88.25" stroke="white" stroke-opacity="0.11" stroke-width="2.5"/>
<path d="M-165.5 134.25C-165.5 134.25 -124.125 126.75 -82.75 126.75C-41.375 126.75 1.19209e-07 134.25 1.19209e-07 134.25C1.19209e-07 134.25 41.375 141.75 82.75 141.75C124.125 141.75 165.5 134.25 165.5 134.25C165.5 134.25 206.875 126.75 248.25 126.75C289.625 126.75 331 134.25 331 134.25C331 134.25 372.375 141.75 413.75 141.75C455.125 141.75 496.5 134.25 496.5 134.25" stroke="white" stroke-opacity="0.11" stroke-width="2.5"/>
<path d="M-165.5 180.25C-165.5 180.25 -124.125 172.75 -82.75 172.75C-41.375 172.75 1.19209e-07 180.25 1.19209e-07 180.25C1.19209e-07 180.25 41.375 187.75 82.75 187.75C124.125 187.75 165.5 180.25 165.5 180.25C165.5 180.25 206.875 172.75 248.25 172.75C289.625 172.75 331 180.25 331 180.25C331 180.25 372.375 187.75 413.75 187.75C455.125 187.75 496.5 180.25 496.5 180.25" stroke="white" stroke-opacity="0.11" stroke-width="2.5"/>
<path d="M-165.5 33.75C-165.5 33.75 -124.125 26.25 -82.75 26.25C-41.375 26.25 1.19209e-07 33.75 1.19209e-07 33.75C1.19209e-07 33.75 41.375 41.25 82.75 41.25C124.125 41.25 165.5 33.75 165.5 33.75C165.5 33.75 206.875 26.25 248.25 26.25C289.625 26.25 331 33.75 331 33.75C331 33.75 372.375 41.25 413.75 41.25C455.125 41.25 496.5 33.75 496.5 33.75" stroke="white" stroke-opacity="0.11" stroke-width="2.5"/>
<path d="M-165.5 79.75C-165.5 79.75 -124.125 72.25 -82.75 72.25C-41.375 72.25 1.19209e-07 79.75 1.19209e-07 79.75C1.19209e-07 79.75 41.375 87.25 82.75 87.25C124.125 87.25 165.5 79.75 165.5 79.75C165.5 79.75 206.875 72.25 248.25 72.25C289.625 72.25 331 79.75 331 79.75C331 79.75 372.375 87.25 413.75 87.25C455.125 87.25 496.5 79.75 496.5 79.75" stroke="white" stroke-opacity="0.11" stroke-width="2.5"/>
<path d="M-165.5 125.75C-165.5 125.75 -124.125 118.25 -82.75 118.25C-41.375 118.25 1.19209e-07 125.75 1.19209e-07 125.75C1.19209e-07 125.75 41.375 133.25 82.75 133.25C124.125 133.25 165.5 125.75 165.5 125.75C165.5 125.75 206.875 118.25 248.25 118.25C289.625 118.25 331 125.75 331 125.75C331 125.75 372.375 133.25 413.75 133.25C455.125 133.25 496.5 125.75 496.5 125.75" stroke="white" stroke-opacity="0.11" stroke-width="2.5"/>
<path d="M-165.5 171.75C-165.5 171.75 -124.125 164.25 -82.75 164.25C-41.375 164.25 1.19209e-07 171.75 1.19209e-07 171.75C1.19209e-07 171.75 41.375 179.25 82.75 179.25C124.125 179.25 165.5 171.75 165.5 171.75C165.5 171.75 206.875 164.25 248.25 164.25C289.625 164.25 331 171.75 331 171.75C331 171.75 372.375 179.25 413.75 179.25C455.125 179.25 496.5 171.75 496.5 171.75" stroke="white" stroke-opacity="0.11" stroke-width="2.5"/>
</g>
</svg>
