<svg width="30" height="30" viewBox="0 0 30 30" fill="none" xmlns="http://www.w3.org/2000/svg">
<path d="M8.65486 24V22C8.65486 20.9391 9.07628 19.9217 9.82643 19.1716C10.5766 18.4214 11.594 18 12.6549 18H16.6549C17.7157 18 18.7331 18.4214 19.4833 19.1716C20.2334 19.9217 20.6549 20.9391 20.6549 22V24M21.6549 6.13C22.5153 6.35031 23.2779 6.85071 23.8225 7.55231C24.3671 8.25392 24.6627 9.11683 24.6627 10.005M24.6627 10.005C24.6627 10.8932 24.3671 11.7561 23.8225 12.4577M24.6627 10.005C24.6627 10.8932 23.8225 12.4577 23.8225 12.4577M23.8225 12.4577C23.2779 13.1593 22.5153 13.6597 21.6549 13.88M26.6549 24V22C26.6498 21.1172 26.3528 20.2608 25.8101 19.5644C25.2675 18.868 24.5097 18.3707 23.6549 18.15M7.16764 6.13C6.30723 6.3503 5.54461 6.85071 5.00001 7.55231C4.4554 8.25392 4.1598 9.11683 4.1598 10.005M4.1598 10.005C4.1598 10.8932 4.4554 11.7561 5.00001 12.4577M4.1598 10.005C4.1598 10.8932 5.00001 12.4577 5.00001 12.4577M5.00001 12.4577C5.54461 13.1593 6.30723 13.6597 7.16764 13.88M3 24V22C3.00508 21.1172 3.30209 20.2608 3.84473 19.5644C4.38738 18.868 5.14517 18.3707 6 18.15M18.6549 10C18.6549 12.2091 16.864 14 14.6549 14C12.4457 14 10.6549 12.2091 10.6549 10C10.6549 7.79086 12.4457 6 14.6549 6C16.864 6 18.6549 7.79086 18.6549 10Z" stroke="white" stroke-width="2" stroke-linecap="round" stroke-linejoin="round"/>
</svg>
