<svg width="35" height="35" viewBox="0 0 35 35" fill="none" xmlns="http://www.w3.org/2000/svg">
<path d="M8.74967 24.7917C7.13884 24.7917 5.83301 26.0975 5.83301 27.7083C5.83301 29.3192 7.13884 30.625 8.74967 30.625C10.3605 30.625 11.6663 29.3192 11.6663 27.7083C11.6663 26.0975 10.3605 24.7917 8.74967 24.7917ZM8.74967 24.7917H24.7913M8.74967 24.7917V4.375H5.83301M24.7913 24.7917C23.1805 24.7917 21.8747 26.0975 21.8747 27.7083C21.8747 29.3192 23.1805 30.625 24.7913 30.625C26.4022 30.625 27.708 29.3192 27.708 27.7083C27.708 26.0975 26.4022 24.7917 24.7913 24.7917ZM8.74967 7.29167L29.1663 8.75L27.708 18.9583H8.74967" stroke="white" stroke-width="2" stroke-linecap="round" stroke-linejoin="round"/>
</svg>
