<svg width="51" height="16" viewBox="0 0 51 16" fill="none" xmlns="http://www.w3.org/2000/svg">
<path fill-rule="evenodd" clip-rule="evenodd" d="M20.3496 0.26001L17.7666 15.418H21.8976L24.4826 0.26001H20.3496Z" fill="white"/>
<path fill-rule="evenodd" clip-rule="evenodd" d="M14.3035 0.276926L10.2575 10.6139L9.82552 9.05393C9.02752 7.17293 6.76252 4.47193 4.10352 2.76993L7.80252 15.4109L12.1735 15.4029L18.6795 0.273926L14.3035 0.276926Z" fill="white"/>
<path fill-rule="evenodd" clip-rule="evenodd" d="M8.258 1.3621C8.018 0.439103 7.322 0.164104 6.458 0.131104H0.053L0 0.432104C4.984 1.6411 8.282 4.5551 9.651 8.0581L8.258 1.3621Z" fill="white"/>
<path fill-rule="evenodd" clip-rule="evenodd" d="M32.8564 3.166C34.2074 3.145 35.1874 3.44 35.9484 3.746L36.3214 3.922L36.8804 0.636C36.0614 0.329 34.7794 0 33.1794 0C29.0974 0 26.2204 2.056 26.1974 5.002C26.1714 7.179 28.2474 8.395 29.8154 9.12C31.4254 9.864 31.9644 10.337 31.9574 11.001C31.9444 12.016 30.6744 12.481 29.4874 12.481C27.8324 12.481 26.9544 12.253 25.5974 11.688L25.0654 11.445L24.4834 14.838C25.4504 15.262 27.2344 15.626 29.0864 15.645C33.4294 15.645 36.2514 13.614 36.2804 10.466C36.2984 8.743 35.1974 7.429 32.8094 6.351C31.3644 5.647 30.4804 5.18 30.4894 4.47C30.4894 3.84 31.2394 3.166 32.8564 3.166Z" fill="white"/>
<path fill-rule="evenodd" clip-rule="evenodd" d="M44.2892 0.2771H47.4812L50.8242 15.4261H46.9912C46.9912 15.4261 46.6112 13.6851 46.4882 13.1561C46.1702 13.1561 44.8402 13.1541 43.5872 13.1521C42.4732 13.1511 41.4212 13.1501 41.1972 13.1501C41.0372 13.5591 40.3292 15.4261 40.3292 15.4261H35.9912L42.1252 1.5351C42.5612 0.5471 43.2982 0.2771 44.2892 0.2771ZM44.0322 5.8111C44.0322 5.8111 42.7262 9.1771 42.3862 10.0471H45.8182L44.8612 5.6711L44.5832 4.3641C44.4782 4.6431 44.3392 5.0051 44.2262 5.2971C44.1092 5.6031 44.0212 5.8321 44.0322 5.8111Z" fill="white"/>
</svg>
